<svg width="44" height="42" viewBox="0 0 44 42" fill="none" xmlns="http://www.w3.org/2000/svg">
<path d="M22.653 15.8846C22.4388 15.8847 22.2334 15.9698 22.082 16.1213C21.9305 16.2727 21.8454 16.4781 21.8453 16.6923V21.5385C21.8456 21.7313 21.9145 21.9178 22.0399 22.0643L25.2707 25.8336C25.4101 25.9962 25.6085 26.0967 25.8221 26.1131C26.0357 26.1295 26.247 26.0603 26.4096 25.9209C26.5723 25.7814 26.6728 25.583 26.6892 25.3694C26.7055 25.1558 26.6364 24.9445 26.4969 24.7819L23.4607 21.2398V16.6923C23.4607 16.4781 23.3756 16.2727 23.2241 16.1213C23.0726 15.9698 22.8672 15.8847 22.653 15.8846Z" fill="#0D031B"/>
<path d="M12.3298 21.5048C12.3387 21.5161 12.3529 21.5198 12.3624 21.5306C12.4181 21.5905 12.4826 21.6415 12.5538 21.6818C12.5787 21.7007 12.6047 21.7182 12.6316 21.7341C12.7348 21.7818 12.8471 21.8069 12.9608 21.8077C13.0566 21.8056 13.1512 21.7865 13.2403 21.7512C13.2678 21.7403 13.2947 21.7277 13.3207 21.7135C13.351 21.7016 13.3804 21.6877 13.4088 21.672L16.6396 19.5182C16.7291 19.4599 16.8062 19.3844 16.8663 19.2962C16.9265 19.2079 16.9686 19.1086 16.9901 19.004C17.0116 18.8994 17.0122 18.7915 16.9917 18.6867C16.9713 18.5818 16.9302 18.4821 16.871 18.3932C16.8117 18.3043 16.7355 18.2281 16.6465 18.1689C16.5576 18.1097 16.4579 18.0687 16.353 18.0484C16.2481 18.028 16.1403 18.0286 16.0357 18.0502C15.9311 18.0718 15.8318 18.1139 15.7436 18.1742L13.9223 19.3884C14.2291 17.7289 15.0023 16.1911 16.1515 14.9551C17.3007 13.7191 18.7783 12.8362 20.4112 12.4096C22.0441 11.983 23.7647 12.0305 25.3715 12.5465C26.9784 13.0625 28.405 14.0257 29.4842 15.3231C30.5635 16.6206 31.2508 18.1988 31.4655 19.8727C31.6803 21.5467 31.4137 23.2472 30.6969 24.7751C29.9801 26.303 28.8428 27.595 27.4183 28.5C25.9937 29.4049 24.3408 29.8852 22.6531 29.8846C22.4389 29.8846 22.2335 29.9697 22.082 30.1212C21.9305 30.2727 21.8454 30.4781 21.8454 30.6923C21.8454 30.9065 21.9305 31.112 22.082 31.2634C22.2335 31.4149 22.4389 31.5 22.6531 31.5C24.6422 31.5004 26.5905 30.9358 28.2711 29.8719C29.9518 28.808 31.2957 27.2887 32.1464 25.4907C32.9971 23.6927 33.3196 21.6901 33.0763 19.7159C32.8331 17.7417 32.0341 15.8773 30.7724 14.3396C29.5106 12.8019 27.8381 11.6542 25.9494 11.0302C24.0608 10.4061 22.0337 10.3313 20.1042 10.8146C18.1747 11.2978 16.4222 12.3192 15.0506 13.7597C13.6791 15.2003 12.7449 17.0008 12.3569 18.9517L11.438 17.8029C11.3039 17.6361 11.1091 17.5293 10.8964 17.5059C10.6837 17.4825 10.4704 17.5444 10.3033 17.6781C10.1362 17.8118 10.0289 18.0063 10.005 18.219C9.98117 18.4316 10.0426 18.6451 10.1759 18.8125L12.3298 21.5048Z" fill="#0D031B"/>
<path d="M19.2097 30.9163C19.3099 30.9513 19.4159 30.9662 19.5218 30.9602C19.6277 30.9542 19.7314 30.9274 19.8269 30.8813C19.9224 30.8352 20.0079 30.7707 20.0785 30.6915C20.1491 30.6124 20.2034 30.5201 20.2383 30.4199C20.2732 30.3198 20.2881 30.2137 20.2821 30.1079C20.276 30.002 20.2492 29.8983 20.2031 29.8028C20.157 29.7073 20.0926 29.6218 20.0134 29.5512C19.9343 29.4806 19.842 29.4263 19.7419 29.3913C17.5868 28.6447 15.8013 27.0981 14.7548 25.0716C14.6554 24.8831 14.4855 24.7415 14.2821 24.6777C14.0788 24.614 13.8584 24.6331 13.6692 24.7311C13.4799 24.8291 13.337 24.9979 13.2717 25.2007C13.2063 25.4036 13.2238 25.624 13.3203 25.814C14.5561 28.2075 16.6646 30.0342 19.2097 30.9163Z" fill="#0D031B"/>
</svg>
