<svg width="24" height="24" viewBox="0 0 24 24" fill="none" xmlns="http://www.w3.org/2000/svg">
<rect width="24" height="24" fill="#C1BEBE"/>
<g id="History topup">
<g clip-path="url(#clip0_119_665)">
<rect x="-327" y="-68" width="375" height="812" rx="30" fill="url(#paint0_linear_119_665)"/>
<g id="Frame 1256">
<g id="vuesax/linear/notification">
<rect x="-8" y="-8" width="40" height="40" rx="20" fill="white" fill-opacity="0.3"/>
<g id="notification">
<path id="Vector" d="M12.02 2.91C8.71 2.91 6.02 5.6 6.02 8.91V11.8C6.02 12.41 5.76 13.34 5.45 13.86L4.3 15.77C3.59 16.95 4.08 18.26 5.38 18.7C9.69 20.14 14.34 20.14 18.65 18.7C19.86 18.3 20.39 16.87 19.73 15.77L18.58 13.86C18.28 13.34 18.02 12.41 18.02 11.8V8.91C18.02 5.61 15.32 2.91 12.02 2.91Z" stroke="white" stroke-width="1.5" stroke-miterlimit="10" stroke-linecap="round"/>
<path id="Vector_2" d="M13.87 3.2C13.56 3.11 13.24 3.04 12.91 3C11.95 2.88 11.03 2.95 10.17 3.2C10.46 2.46 11.18 1.94 12.02 1.94C12.86 1.94 13.58 2.46 13.87 3.2Z" stroke="white" stroke-width="1.5" stroke-miterlimit="10" stroke-linecap="round" stroke-linejoin="round"/>
<path id="Vector_3" d="M15.02 19.06C15.02 20.71 13.67 22.06 12.02 22.06C11.2 22.06 10.44 21.72 9.89999 21.18C9.35999 20.64 9.01999 19.88 9.01999 19.06" stroke="white" stroke-width="1.5" stroke-miterlimit="10"/>
</g>
<circle id="Ellipse 4" cx="17" cy="6" r="3.25" fill="#E34137" stroke="#A16AF2" stroke-width="1.5"/>
</g>
</g>
</g>
</g>
<defs>
<linearGradient id="paint0_linear_119_665" x1="-327" y1="-68" x2="37.5" y2="198.5" gradientUnits="userSpaceOnUse">
<stop stop-color="#5F13CE"/>
<stop offset="1" stop-color="#8231F7"/>
</linearGradient>
<clipPath id="clip0_119_665">
<rect x="-327" y="-68" width="375" height="812" rx="30" fill="white"/>
</clipPath>
</defs>
</svg>
