<svg width="45" height="44" viewBox="0 0 45 44" fill="none" xmlns="http://www.w3.org/2000/svg">
<path d="M22.2751 22.78C22.2051 22.77 22.1151 22.77 22.0351 22.78C20.2751 22.72 18.8751 21.28 18.8751 19.51C18.8751 17.7 20.3351 16.23 22.1551 16.23C23.9651 16.23 25.4351 17.7 25.4351 19.51C25.4251 21.28 24.0351 22.72 22.2751 22.78Z" stroke="#0D031B" stroke-width="1.5" stroke-linecap="round" stroke-linejoin="round"/>
<path d="M28.8952 29.38C27.1152 31.01 24.7552 32 22.1552 32C19.5552 32 17.1952 31.01 15.4152 29.38C15.5152 28.44 16.1152 27.52 17.1852 26.8C19.9252 24.98 24.4052 24.98 27.1252 26.8C28.1952 27.52 28.7952 28.44 28.8952 29.38Z" stroke="#0D031B" stroke-width="1.5" stroke-linecap="round" stroke-linejoin="round"/>
<path d="M22.1552 32C27.678 32 32.1552 27.5228 32.1552 22C32.1552 16.4772 27.678 12 22.1552 12C16.6323 12 12.1552 16.4772 12.1552 22C12.1552 27.5228 16.6323 32 22.1552 32Z" stroke="#0D031B" stroke-width="1.5" stroke-linecap="round" stroke-linejoin="round"/>
</svg>
